HIERARCHY
ROOT Hips
{
 OFFSET 0.000000 0.000000 0.000000
 CHANNELS 6 Xposition Yposition Zposition Yrotation Xrotation Zrotation
 JOINT Chest
 {
  OFFSET 0.000000 9.585900 0.002600
  CHANNELS 3 Yrotation Xrotation Zrotation
  JOINT Chest2
  {
   OFFSET 0.000000 9.601200 -0.005300
   CHANNELS 3 Yrotation Xrotation Zrotation
   JOINT Chest3
   {
    OFFSET 0.000000 9.561800 0.000000
    CHANNELS 3 Yrotation Xrotation Zrotation
    JOINT Chest4
    {
     OFFSET 0.000000 9.552100 0.000000
     CHANNELS 3 Yrotation Xrotation Zrotation
     JOINT Neck
     {
      OFFSET 0.000000 14.453000 0.000000
      CHANNELS 3 Yrotation Xrotation Zrotation
      JOINT Head
      {
       OFFSET 0.000000 8.936500 -0.011300
       CHANNELS 3 Yrotation Xrotation Zrotation
       End Site
       {
        OFFSET 0.000000 17.073600 -0.006000
       }
      }
     }
     JOINT RightCollar
     {
      OFFSET -2.921100 9.558500 0.000000
      CHANNELS 3 Yrotation Xrotation Zrotation
      JOINT RightShoulder
      {
       OFFSET -13.519700 0.000000 0.000000
       CHANNELS 3 Yrotation Xrotation Zrotation
       JOINT RightElbow
       {
        OFFSET 0.000000 -29.696600 0.000000
        CHANNELS 3 Yrotation Xrotation Zrotation
        JOINT RightWrist
        {
         OFFSET 0.000000 -24.004700 0.000000
         CHANNELS 3 Yrotation Xrotation Zrotation
         End Site
         {
          OFFSET 0.000000 -17.728500 0.000000
         }
        }
       }
      }
     }
     JOINT LeftCollar
     {
      OFFSET 2.921100 9.558500 0.000000
      CHANNELS 3 Yrotation Xrotation Zrotation
      JOINT LeftShoulder
      {
       OFFSET 13.519700 0.000000 0.000000
       CHANNELS 3 Yrotation Xrotation Zrotation
       JOINT LeftElbow
       {
        OFFSET 0.000000 -29.696600 0.000000
        CHANNELS 3 Yrotation Xrotation Zrotation
        JOINT LeftWrist
        {
         OFFSET 0.000000 -24.004700 0.000000
         CHANNELS 3 Yrotation Xrotation Zrotation
         End Site
         {
          OFFSET 0.000000 -17.728500 0.000000
         }
        }
       }
      }
     }
    }
   }
  }
 }
 JOINT RightHip
 {
  OFFSET -7.771700 -0.012900 -0.001300
  CHANNELS 3 Yrotation Xrotation Zrotation
  JOINT RightKnee
  {
   OFFSET 0.000000 -40.869800 0.001200
   CHANNELS 3 Yrotation Xrotation Zrotation
   JOINT RightAnkle
   {
    OFFSET 0.000000 -39.717900 0.002100
    CHANNELS 3 Yrotation Xrotation Zrotation
    JOINT RightToe
    {
     OFFSET 0.000000 -4.965400 11.033500
     CHANNELS 3 Yrotation Xrotation Zrotation
     End Site
     {
      OFFSET 0.000000 -1.423100 5.872300
     }
    }
   }
  }
 }
 JOINT LeftHip
 {
  OFFSET 7.771700 -0.012900 -0.001300
  CHANNELS 3 Yrotation Xrotation Zrotation
  JOINT LeftKnee
  {
   OFFSET 0.000000 -40.869800 0.001200
   CHANNELS 3 Yrotation Xrotation Zrotation
   JOINT LeftAnkle
   {
    OFFSET 0.000000 -39.717900 0.002100
    CHANNELS 3 Yrotation Xrotation Zrotation
    JOINT LeftToe
    {
     OFFSET 0.000000 -4.965400 11.033500
     CHANNELS 3 Yrotation Xrotation Zrotation
     End Site
     {
      OFFSET 0.000000 -1.423100 5.872300
     }
    }
   }
  }
 }
}
MOTION
Frames: 9
Frame Time: 0.008333
-12.425161 57.129433 68.957974 170.046866 -41.901889 -1.270551 3.713745 29.519280 7.845292 0.465289 5.916514 1.008264 0.772530 9.205819 1.596139 2.655222 23.785547 4.582835 2.186191 7.682593 -7.883733 8.209162 -20.726462 -16.651972 3.664128 1.113367 -3.571133 20.182839 -36.064613 -14.626312 0.587614 -64.797001 13.983936 20.183836 3.499613 -38.911528 -12.215365 -1.394649 -5.287271 -3.532389 -30.786615 -4.444532 -4.303742 -69.315889 -19.372792 14.653119 -5.214250 17.760605 9.993769 -31.982170 2.771029 -8.917600 64.721542 -9.845775 5.155806 15.231357 8.876006 -0.499196 -7.425521 -0.010656 -7.331177 -35.358920 3.207857 27.526054 57.078424 31.207438 -13.867631 38.950516 -4.653961 0.512247 -18.160478 -7.455055
-12.419665 57.133177 68.956887 169.973988 -41.882204 -1.271274 3.701297 29.519708 7.820802 0.466313 5.917477 1.008538 0.818703 9.200668 1.608461 2.613314 23.792066 4.579214 2.198543 7.642607 -7.899200 8.248731 -20.795516 -16.695883 3.663754 1.130298 -3.570112 20.171804 -36.083188 -14.629948 0.583228 -64.826429 14.006442 20.193112 3.513075 -38.918841 -12.283437 -1.369090 -5.264895 -3.396724 -30.826889 -4.483933 -4.294871 -69.329066 -19.431666 14.653960 -5.208547 17.762517 9.948015 -31.986275 2.793092 -8.751372 64.697366 -9.667232 5.206254 15.217767 8.870982 -0.557062 -7.404861 -0.047004 -7.338922 -35.384883 3.221497 27.579663 57.087299 31.329811 -13.844371 38.948872 -4.670668 0.482350 -18.129040 -7.489304
-12.409572 57.135626 68.957599 169.892332 -41.854876 -1.292218 3.707787 29.509792 7.825437 0.467161 5.917855 1.008662 0.865030 9.196304 1.619526 2.570893 23.796249 4.576346 2.207991 7.607817 -7.917028 8.282724 -20.855122 -16.742052 3.642914 1.156226 -3.562522 20.187926 -36.106005 -14.644873 0.579943 -64.854003 14.030663 20.201398 3.521361 -38.926681 -12.264214 -1.362678 -5.269988 -3.406255 -30.813704 -4.492259 -4.289958 -69.365361 -19.441750 14.654344 -5.204001 17.762615 9.923864 -32.011125 2.831792 -8.699646 64.668176 -9.540214 5.207540 15.240663 8.784730 -0.559314 -7.400145 -0.050296 -7.359660 -35.414383 3.267998 27.628545 57.095804 31.449880 -13.794758 38.946773 -4.681216 0.417935 -18.072414 -7.511473
-12.398070 57.137969 68.958047 169.809858 -41.832124 -1.318379 3.718146 29.502862 7.836933 0.468091 5.918097 1.008750 0.800421 9.205478 1.603290 2.642719 23.789090 4.583361 2.213412 7.577533 -7.936346 8.308621 -20.906820 -16.788276 3.640328 1.176172 -3.561644 20.178981 -36.121907 -14.647072 0.579973 -64.879898 14.051589 20.206784 3.527310 -38.933420 -12.223301 -1.360901 -5.281678 -3.444964 -30.794798 -4.489242 -4.265945 -69.399672 -19.467425 14.655838 -5.198798 17.763178 9.912114 -32.035783 2.878866 -8.681428 64.641250 -9.440251 5.206623 15.267245 8.695342 -0.535896 -7.399901 -0.049118 -7.378847 -35.437109 3.328016 27.655022 57.109698 31.550393 -13.770883 38.937691 -4.722724 0.398034 -18.058262 -7.530728
-12.387411 57.140338 68.957618 169.726661 -41.816367 -1.336135 3.727510 29.502015 7.841094 0.469221 5.918617 1.008978 0.800483 9.205914 1.603433 2.669542 23.787207 4.586610 2.196752 7.551832 -7.949929 8.326104 -20.952034 -16.833402 3.615718 1.194072 -3.551093 20.172079 -36.135068 -14.651863 0.581613 -64.904050 14.071356 20.212001 3.527160 -38.920899 -12.301349 -1.336651 -5.256723 -3.340992 -30.822703 -4.519252 -4.228509 -69.414815 -19.535465 14.658610 -5.193894 17.761178 9.908946 -32.053539 2.918495 -8.645322 64.620177 -9.334066 5.220124 15.285788 8.630711 -0.526070 -7.399254 -0.055783 -7.392305 -35.455158 3.376752 27.676460 57.125063 31.649446 -13.772493 38.937783 -4.761570 0.383662 -17.983323 -7.566625
-12.378219 57.142042 68.957038 169.679256 -41.801355 -1.366749 3.751331 29.492510 7.872513 0.428302 5.924831 0.993951 0.866399 9.198169 1.620584 2.669890 23.787339 4.586639 2.140566 7.530816 -7.951171 8.337794 -20.991832 -16.877987 3.553049 1.211399 -3.525013 20.194366 -36.147697 -14.671055 0.589125 -64.920147 14.099757 20.204530 3.545365 -38.963342 -12.378779 -1.319596 -5.233275 -3.249091 -30.846867 -4.543376 -4.192465 -69.412729 -19.632334 14.661115 -5.191668 17.757057 9.885549 -32.068192 2.941307 -8.601349 64.603156 -9.218614 5.243896 15.306807 8.564219 -0.538458 -7.405700 -0.056870 -7.428670 -35.474251 3.412914 27.690145 57.140447 31.741903 -13.775663 38.935571 -4.828467 0.389815 -17.973574 -7.588673
-12.360440 57.140741 68.961311 169.594013 -41.765790 -1.425218 3.762413 29.474316 7.906902 0.451318 5.922544 1.002380 0.866382 9.200565 1.618104 2.678725 23.787746 4.589748 2.134395 7.508928 -7.972283 8.345499 -21.025403 -16.922449 3.550332 1.228759 -3.519208 20.270438 -36.160675 -14.710817 0.580832 -64.928434 14.095192 20.192875 3.574967 -39.022914 -12.380004 -1.314978 -5.234876 -3.231474 -30.847121 -4.548451 -4.150056 -69.427477 -19.688006 14.649959 -5.203680 17.791159 9.857443 -32.114616 3.023887 -8.552657 64.582960 -9.096940 5.292325 15.291123 8.527876 -0.600557 -7.374525 -0.082389 -7.482531 -35.507829 3.523177 27.748244 57.142605 31.837538 -13.628911 38.986388 -4.699601 0.290736 -17.999097 -7.675689
-12.346799 57.139275 68.964487 169.513860 -41.736361 -1.458399 3.754187 29.460830 7.911913 0.471715 5.919856 1.008755 0.805528 9.209221 1.602851 2.680550 23.788549 4.587345 2.185616 7.491269 -8.014013 8.392935 -21.035408 -16.952146 3.614405 1.253915 -3.535014 20.176683 -36.196143 -14.696889 0.589967 -64.948862 14.170763 20.196913 3.584750 -39.019870 -12.298772 -1.314520 -5.262551 -3.333133 -30.830243 -4.513744 -4.086412 -69.463766 -19.640902 14.670472 -5.178058 17.729576 9.841123 -32.149847 3.077384 -8.496339 64.560444 -8.968217 5.292250 15.310657 8.455893 -0.599833 -7.368837 -0.087880 -7.527026 -35.538886 3.595948 27.708500 57.166298 31.897218 -13.656531 39.014153 -4.821808 0.287494 -17.946060 -7.683138
-12.333427 57.137577 68.967567 169.442594 -41.711120 -1.492173 3.804070 29.436681 7.965589 0.427445 5.921677 0.995237 0.783733 9.210895 1.596583 2.684541 23.788883 4.586106 2.198332 7.480712 -8.044040 8.440677 -21.044828 -16.983126 3.659775 1.279725 -3.547132 20.144436 -36.220732 -14.697160 0.580840 -64.965220 14.191673 20.200551 3.605180 -39.018585 -12.217313 -1.312556 -5.292489 -3.397614 -30.824243 -4.492716 -4.005203 -69.465232 -19.739862 14.659587 -5.185674 17.763214 9.818316 -32.181030 3.127171 -8.432389 64.540766 -8.836087 5.291456 15.333233 8.388152 -0.598532 -7.367688 -0.096040 -7.583235 -35.567097 3.667737 27.663278 57.193125 31.944972 -13.684749 39.050735 -4.947266 0.312942 -17.945034 -7.700092
